#!OML:ASF E:\acrobat2\Project_11_07_03\Capture day 1\Session 1\Acrobat.ASF
:FULLY-SPECIFIED
:DEGREES
729
root 11.2222 14.2107 -12.7963 184.358 1.07464 -176.243
lowerback -6.34 -0.278351 2.50894
upperback -6.20313 0.0705648 -1.14765
thorax -2.86469 0.154181 -2.60111
lowerneck 1.5669 -1.42694 1.77505
upperneck 1.69958 -1.7431 5.12354
head 0.29228 -0.768662 1.28026
rclavicle -5.96354e-015 1.74931e-014
rhumerus 86.4146 -39.9217 -48.3883
rradius 30.2052
rwrist -4.51096
rhand -19.6629 318.376
rfingers 7.12502
rthumb 6.66523 -431.499
lclavicle -5.96354e-015 1.74931e-014
lhumerus -39.4817 4.95994 67.9661
lradius 9.7551
lwrist 0.0783614
lhand -9.81163 -2.1904
lfingers 7.12502
lthumb 16.165 27.1555
rfemur 23.8359 49.451 -0.840892
rtibia -5.884
rfoot -62.5849 -20.3489
rtoes 12.6623
lfemur 21.0668 -49.6003 13.4189
ltibia -9.88502
lfoot -62.854 -21.6455
ltoes 54.2381
730
root 11.2226 14.2109 -12.7971 184.375 1.00831 -176.11
lowerback -6.26756 -0.269853 2.64361
upperback -6.2077 0.0770817 -1.13508
thorax -2.91058 0.151228 -2.66381
lowerneck 1.70654 -1.37501 1.7302
upperneck 1.66364 -1.65958 5.32684
head 0.258929 -0.725522 1.35281
rclavicle -3.97569e-015 2.3059e-014
rhumerus 86.2869 -39.9484 -48.1803
rradius 30.213
rwrist -4.50006
rhand -19.7928 318.358
rfingers 7.12502
rthumb 6.53983 -431.521
lclavicle -3.97569e-015 2.3059e-014
lhumerus -39.4913 4.84492 67.9698
lradius 9.79947
lwrist 0.115595
lhand -9.67674 -2.21278
lfingers 7.12502
lthumb 16.2949 27.1226
rfemur 23.8194 49.388 -0.685081
rtibia -5.83693
rfoot -62.6085 -20.328
rtoes 12.8431
lfemur 20.9001 -49.5173 13.7454
ltibia -9.92013
lfoot -62.7849 -21.4908
ltoes 54.2011
731
root 11.2241 14.2093 -12.7987 184.403 0.941395 -176.163
lowerback -6.1936 -0.275785 2.56946
upperback -6.24957 0.0781752 -1.14868
thorax -2.99489 0.154364 -2.63678
lowerneck 1.55731 -1.42271 1.83671
upperneck 1.99354 -1.74249 5.13694
head 0.383529 -0.756293 1.27345
rclavicle 9.93923e-015 -8.74653e-015
rhumerus 85.6328 -40.0405 -47.2202
rradius 30.3117
rwrist -5.158
rhand -20.2984 318.223
rfingers 7.12502
rthumb 6.05172 -431.671
lclavicle 9.93923e-015 -8.74653e-015
lhumerus -39.5815 4.71927 68.0027
lradius 9.82102
lwrist 0.189587
lhand -9.68754 -2.30658
lfingers 7.12502
lthumb 16.2845 27.0296
rfemur 23.7747 49.2642 -0.803745
rtibia -5.85167
rfoot -62.6094 -20.1783
rtoes 13.063
lfemur 20.8596 -49.6622 13.7077
ltibia -9.92237
lfoot -62.9627 -21.4532
ltoes 54.1872
732
root 11.2253 14.2082 -12.7996 184.451 0.881677 -176.212
lowerback -6.12109 -0.275111 2.47383
upperback -6.29532 0.0894435 -1.14593
thorax -3.08158 0.164003 -2.58043
lowerneck 1.34218 -1.52026 1.87102
upperneck 2.36282 -1.89673 4.98475
head 0.533266 -0.821295 1.21806
rclavicle 2.18663e-015 5.56597e-015
rhumerus 85.2145 -40.0677 -46.5871
rradius 30.395
rwrist -5.56702
rhand -20.5723 318.047
rfingers 7.12502
rthumb 5.78734 -431.854
lclavicle 2.18663e-015 5.56597e-015
lhumerus -39.6714 4.58859 68.0598
lradius 9.88406
lwrist 0.305958
lhand -9.64593 -2.45705
lfingers 7.12502
lthumb 16.3246 26.8759
rfemur 23.6751 49.1173 -0.967634
rtibia -5.86325
rfoot -62.5144 -20.0726
rtoes 13.0214
lfemur 20.7527 -49.7427 13.7329
ltibia -9.90264
lfoot -62.9603 -21.6382
ltoes 54.3082
733
root 11.225 14.2094 -12.8032 184.491 0.828169 -176.162
lowerback -6.1007 -0.272012 2.49433
upperback -6.29264 0.0927109 -1.12414
thorax -3.09003 0.164837 -2.56931
lowerneck 1.08087 -1.55344 1.87141
upperneck 2.69139 -1.96265 4.98054
head 0.6791 -0.840374 1.21487
rclavicle -2.98177e-015 -2.38542e-015
rhumerus 85.5477 -39.959 -46.9864
rradius 30.3446
rwrist -5.16319
rhand -20.2729 318.217
rfingers 7.12502
rthumb 6.07637 -431.676
lclavicle -2.98177e-015 -2.38542e-015
lhumerus -39.6777 4.51798 68.1094
lradius 9.94656
lwrist 0.501543
lhand -9.53904 -2.52544
lfingers 7.12502
lthumb 16.4275 26.799
rfemur 23.6732 49.0862 -0.904339
rtibia -5.85731
rfoot -62.5229 -20.0968
rtoes 12.8998
lfemur 20.6464 -49.7396 13.8774
ltibia -9.90742
lfoot -62.888 -21.8425
ltoes 54.433
734
root 11.2252 14.2097 -12.8081 184.519 0.796728 -176.212
lowerback -6.18424 -0.275571 2.42162
upperback -6.20748 0.0786422 -1.13964
thorax -2.9544 0.15929 -2.54384
lowerneck 0.794904 -1.5035 1.92383
upperneck 2.9187 -1.91483 4.99523
head 0.796011 -0.804618 1.20938
rclavicle -3.57812e-015 1.35174e-014
rhumerus 86.3806 -39.8503 -47.9682
rradius 30.2143
rwrist -4.41609
rhand -19.7038 318.627
rfingers 7.12502
rthumb 6.6258 -431.249
lclavicle -3.57812e-015 1.35174e-014
lhumerus -39.4997 4.54788 68.167
lradius 9.84449
lwrist 0.660673
lhand -9.62101 -2.61505
lfingers 7.12502
lthumb 16.3486 26.7159
rfemur 23.6796 49.0627 -0.965643
rtibia -5.87974
rfoot -62.7184 -19.9006
rtoes 13.6169
lfemur 20.6659 -49.8355 13.785
ltibia -9.92153
lfoot -63.0101 -22.0219
ltoes 54.5156
735
root 11.226 14.2085 -12.8109 184.547 0.787791 -176.282
lowerback -6.24029 -0.257444 2.35306
upperback -6.14151 0.095981 -1.19738
thorax -2.8525 0.168581 -2.56364
lowerneck 0.8215 -1.47569 1.96626
upperneck 2.84359 -1.87125 5.06462
head 0.767972 -0.782778 1.2243
rclavicle -1.39149e-015 1.03368e-014
rhumerus 86.8911 -39.8739 -48.5433
rradius 30.1372
rwrist -3.96982
rhand -19.6841 318.864
rfingers 7.12502
rthumb 6.64477 -431.012
lclavicle -1.39149e-015 1.03368e-014
lhumerus -39.3231 4.48406 68.1786
lradius 9.74785
lwrist 0.761635
lhand -9.75748 -2.57578
lfingers 7.12502
lthumb 16.2172 26.7659
rfemur 23.6436 49.039 -1.09455
rtibia -5.89846
rfoot -62.8654 -19.8003
rtoes 14.0204
lfemur 20.7336 -49.9888 13.6268
ltibia -9.92206
lfoot -63.2386 -22.0222
ltoes 54.479
736
root 11.2245 14.2075 -12.8142 184.573 0.74373 -176.334
lowerback -6.22316 -0.225555 2.33717
upperback -6.15593 0.141244 -1.24661
thorax -2.8743 0.191351 -2.60427
lowerneck 1.23942 -1.52761 1.91393
upperneck 2.53509 -1.91037 5.10221
head 0.604639 -0.816698 1.24702
rclavicle 2.98177e-015 -1.03368e-014
rhumerus 86.6622 -39.9862 -48.1514
rradius 30.1497
rwrist -4.18813
rhand -20.3825 318.823
rfingers 7.12502
rthumb 5.97055 -431.072
lclavicle 2.98177e-015 -1.03368e-014
lhumerus -39.3479 4.29904 68.2223
lradius 9.8523
lwrist 0.869743
lhand -9.82029 -2.41334
lfingers 7.12502
lthumb 16.1567 26.9333
rfemur 23.666 48.9902 -1.15463
rtibia -5.91696
rfoot -62.8316 -19.9514
rtoes 13.6459
lfemur 20.7738 -50.1491 13.4976
ltibia -9.9061
lfoot -63.4269 -21.821
ltoes 54.3802
737
root 11.2237 14.2064 -12.818 184.62 0.743317 -176.451
lowerback -6.21772 -0.220671 2.17705
upperback -6.17927 0.157588 -1.25546
thorax -2.89955 0.206328 -2.52305
lowerneck 1.61141 -1.57955 1.97281
upperneck 2.2754 -1.95646 4.9174
head 0.460842 -0.855402 1.18161
rclavicle 1.07344e-014 -5.32743e-014
rhumerus 86.6968 -39.9049 -48.1093
rradius 30.1933
rwrist -4.27102
rhand -20.6239 318.544
rfingers 7.12502
rthumb 5.73749 -431.359
lclavicle 1.07344e-014 -5.32743e-014
lhumerus -39.4306 4.23479 68.2942
lradius 9.95492
lwrist 1.00575
lhand -9.93764 -2.48843
lfingers 7.12502
lthumb 16.0437 26.8673
rfemur 23.4611 48.7881 -1.49983
rtibia -5.89926
rfoot -62.6311 -19.8391
rtoes 13.7452
lfemur 20.8458 -50.3225 13.2519
ltibia -9.88887
lfoot -63.6682 -21.7473
ltoes 54.3482
738
root 11.2273 14.206 -12.8203 184.684 0.86352 -176.646
lowerback -6.19513 -0.237236 1.84675
upperback -6.18338 0.148276 -1.26169
thorax -2.91456 0.213802 -2.34422
lowerneck 1.66143 -1.58631 2.19179
upperneck 2.20591 -1.96173 4.62122
head 0.425383 -0.863767 1.05281
rclavicle 5.96354e-016 2.3059e-014
rhumerus 87.1537 -39.7049 -48.6329
rradius 30.2405
rwrist -4.14206
rhand -20.2617 318.29
rfingers 7.12502
rthumb 6.08718 -431.603
lclavicle 5.96354e-016 2.3059e-014
lhumerus -39.4389 4.31939 68.2996
lradius 9.94711
lwrist 1.10253
lhand -10.1135 -2.6951
lfingers 7.12502
lthumb 15.8744 26.6742
rfemur 23.1272 48.7139 -2.01443
rtibia -5.86584
rfoot -62.4841 -19.6694
rtoes 13.9412
lfemur 21.0826 -50.6017 12.7668
ltibia -9.86583
lfoot -64.1795 -21.7044
ltoes 54.2637
739
root 11.2309 14.2066 -12.8221 184.758 0.973052 -176.788
lowerback -6.17367 -0.242645 1.59823
upperback -6.19681 0.151942 -1.27167
thorax -2.93873 0.225064 -2.21495
lowerneck 1.4921 -1.58952 2.26747
upperneck 2.40875 -1.98059 4.50225
head 0.513342 -0.866281 1.00168
rclavicle 1.78906e-015 0
rhumerus 87.1852 -39.6908 -48.5171
rradius 30.2779
rwrist -4.40612
rhand -19.8516 318.232
rfingers 7.12502
rthumb 6.4831 -431.648
lclavicle 1.78906e-015 0
lhumerus -39.3906 4.37388 68.3109
lradius 9.88736
lwrist 1.14595
lhand -10.2641 -2.81086
lfingers 7.12502
lthumb 15.7293 26.5699
rfemur 23.0189 48.9173 -2.22151
rtibia -5.87832
rfoot -62.6187 -19.7436
rtoes 13.9232
lfemur 21.2269 -50.7681 12.4477
ltibia -9.86375
lfoot -64.5376 -21.6548
ltoes 54.212
740
root 11.2302 14.2067 -12.8262 184.783 0.939409 -176.811
lowerback -6.15108 -0.269474 1.54129
upperback -6.2096 0.119996 -1.26394
thorax -2.96591 0.211596 -2.17632
lowerneck 1.37476 -1.56819 2.17013
upperneck 2.65284 -1.96435 4.614
head 0.609974 -0.847857 1.05174
rclavicle -3.57812e-015 2.46493e-014
rhumerus 87.2728 -39.6183 -48.5203
rradius 30.2705
rwrist -4.45772
rhand -19.6211 318.286
rfingers 7.12502
rthumb 6.70559 -431.588
lclavicle -3.57812e-015 2.46493e-014
lhumerus -39.3761 4.37936 68.3325
lradius 9.80752
lwrist 1.19514
lhand -10.3469 -2.9016
lfingers 7.12502
lthumb 15.6496 26.4854
rfemur 23.2703 49.1699 -1.97472
rtibia -5.91517
rfoot -62.9513 -19.8482
rtoes 14.0334
lfemur 21.1815 -50.7713 12.4593
ltibia -9.87034
lfoot -64.6195 -21.4955
ltoes 54.0987
